# xmcd
#
# Track frame offsets:
#	150
#	23306
#	42352
#	68808
#	94971
#	147911
#	171329
#	195231
#	222349
#	241546
#	259702
#	283801
#	306354
#
# Disc length: 4320 seconds
#
# Revision: 0
# Processed by: cddbd v1.5.2PL0 Copyright (c) Steve Scherf et al.
# Submitted via: EasyCDDAExtractor 15.3.0.1
#
DISCID=b410de0d
DTITLE=Alejandro Sanz - Sirope Vivo - CD 2
DYEAR=2015
DGENRE=Latin
TTITLE0=Camino De Rosas
TTITLE1=Baila Morena (Con Zucchero)
TTITLE2=Un Zombie A La Intemperie (Con Zucchero)
TTITLE3=Looking For Paradise
TTITLE4=No Es Lo Mismo
TTITLE5=Lo Ves
TTITLE6=Capitan Tapon
TTITLE7=A Que No Me Dejas (Con Paula Fernandes)
TTITLE8=Medley (Viviendo Deprisa, Pisando Fuerte)
TTITLE9=El Cuaderno Del Alba (Cancion Inedita) (Bonus Track En Estudio)
TTITLE10=A Que No Me Dejas (Con Alejandro Fernandez) (Bonus Track En Estudio)
TTITLE11=Un Zombie A La Intemperie (Con Pedro Abrunhosa) (Bonus Track En Estud
TTITLE11=io)
TTITLE12=Un Zombie A La Intemperie (Con Luis Enrique) (Version Salsa) (Bonus T
TTITLE12=rack En Estudio)
EXTD=
EXTT0=
EXTT1=
EXTT2=
EXTT3=
EXTT4=
EXTT5=
EXTT6=
EXTT7=
EXTT8=
EXTT9=
EXTT10=
EXTT11=
EXTT12=
PLAYORDER=
